# xmcd CD database file
#
# Track frame offsets:
#	150
#	18949
#	39032
#	64724
#	86387
#	100127
#	113772
#	133652
#	153002
#	167845
#	196652
#	223352
#	262050
#	285837
#
# Disc length: 4297 seconds
#
# Revision: 0
# Processed by: cddbd v1.4PL0 Copyright (c) Steve Scherf et al.
# Submitted via: CDex 1.50Beta7
#
DISCID=b010c70e
DTITLE=Manu Dibango - African Soul
DYEAR=1997
DGENRE=Rhythmic Soul
TTITLE0=Dikalo (Salt Pop Corn)
TTITLE1=Soul Makossa
TTITLE2=Big Blow
TTITLE3=Wakafrika
TTITLE4=Soul Machine
TTITLE5=Je Veux etre noir
TTITLE6=Hot Chicken
TTITLE7=Sunday morning
TTITLE8=Wouri
TTITLE9=Douala Serenade
TTITLE10=Bayam Sellam
TTITLE11=Goro City
TTITLE12=Choc'n'soul
TTITLE13=Senga Abele
EXTD=YEAR: 1997
EXTT0=
EXTT1=
EXTT2=
EXTT3=
EXTT4=
EXTT5=
EXTT6=
EXTT7=
EXTT8=
EXTT9=
EXTT10=
EXTT11=
EXTT12=
EXTT13=
PLAYORDER=
